<?xml version="1.0" encoding="UTF-8"?>
<svg width="700pt" height="700pt" version="1.1" fill="#fff" viewBox="0 0 700 700" xmlns="http://www.w3.org/2000/svg" xmlns:xlink="http://www.w3.org/1999/xlink">
 <g>
  <path d="m-1120-639.45h-1.2266c-48.902 0.37109-95.664 20.129-130.02 54.938-34.352 34.812-53.488 81.832-53.207 130.74 0.36719 48.691 19.957 95.266 54.504 129.58 34.547 34.316 81.25 53.598 129.95 53.641h1.2266c48.902-0.37109 95.664-20.129 130.02-54.938 34.352-34.812 53.488-81.832 53.207-130.74-0.36719-48.691-19.957-95.266-54.504-129.58-34.547-34.316-81.25-53.598-129.95-53.641zm-71.488 184.89c-0.19531-22 1.6484-43.969 5.5117-65.625 18.734-3.5703 37.727-5.6172 56.789-6.125l0.875 142.71c-19.07-0.28125-38.086-2.0664-56.875-5.3359-4.1641-21.629-6.2734-43.602-6.3008-65.625zm-12.074 61.25c-49.352-12.25-83.211-35-83.387-61.25 0-17.5 16.625-35.438 46.023-49.176 11.777-5.2188 23.988-9.4023 36.488-12.512-3.1992 20.258-4.7227 40.742-4.5508 61.25 0.042969 20.797 1.8594 41.551 5.4258 62.039zm91.176-227.5c14.613 4.4609 28.961 20.039 40.426 44.539 5.4609 11.84 9.8828 24.137 13.211 36.75-17.375-2.6953-34.918-4.1562-52.5-4.375zm-17.5 0 0.52344 76.648c-17.598 0.48437-35.141 2.2109-52.5 5.1641 10.762-43.227 29.926-74.637 51.977-81.461zm1.75 254.36 0.52344 76.562c-14.523-4.6367-29.051-20.039-40.426-44.539-5.4219-11.617-9.8438-23.676-13.211-36.051 17.578 2.7227 35.328 4.1875 53.113 4.375zm18.023 76.562-0.52344-76.648v-0.003906c17.598-0.48438 35.141-2.207 52.5-5.1602-10.762 43.926-29.926 75.336-51.977 82.16zm-0.69922-94.148-0.875-142.71v-0.003906c19.074 0.26562 38.094 2.082 56.875 5.4258 4.168 21.598 6.2773 43.539 6.3008 65.535 0.19531 22-1.6484 43.969-5.5117 65.625-18.727 3.6875-37.715 5.8516-56.789 6.4766zm74.461-133.26c49.176 12.25 83.125 35 83.301 60.812 0 17.5-16.625 35.438-46.023 49.176v-0.003906c-11.746 5.5781-23.953 10.113-36.488 13.562 3.1992-20.258 4.7227-40.742 4.5508-61.25-0.054687-20.762-1.8398-41.484-5.3398-61.949zm76.914 16.801v-0.003906c-23.719-18.121-51.398-30.355-80.762-35.699-3.7031-16.332-9.0391-32.25-15.926-47.512-5.3047-11.828-12.258-22.848-20.648-32.727 27.957 7.5547 53.469 22.246 74.039 42.633 20.57 20.387 35.492 45.766 43.297 73.656zm-205.71-115.41v-0.003906c-18.141 23.707-30.379 51.391-35.703 80.766-16.328 3.7031-32.246 9.0391-47.512 15.922-11.812 5.3359-22.824 12.285-32.723 20.652 7.5898-27.844 22.258-53.25 42.574-73.75 20.316-20.5 45.586-35.395 73.363-43.238zm-115.41 205.71c23.719 18.121 51.398 30.355 80.762 35.699 3.7031 16.332 9.0391 32.25 15.926 47.512 5.3047 11.828 12.258 22.848 20.648 32.727-27.875-7.4961-53.332-22.078-73.895-42.336-20.562-20.258-35.531-45.492-43.441-73.254zm205.71 115.41v-0.003906c18.141-23.707 30.379-51.391 35.703-80.762 16.328-3.7031 32.246-9.0391 47.512-15.926 11.812-5.332 22.824-12.285 32.723-20.648-7.4844 27.973-22.105 53.523-42.426 74.152-20.324 20.629-45.652 35.629-73.512 43.535zm68.602 448.09c-11.379-20.105-27.926-36.809-47.922-48.375-20-11.57-42.727-17.586-65.828-17.426-23.078-0.1875-45.785 5.7891-65.781 17.312-19.996 11.52-36.555 28.168-47.969 48.227-11.676 19.898-17.832 42.551-17.832 65.625 0 23.07 6.1562 45.723 17.832 65.625l105.88 183.75c1.5703 2.7148 4.4727 4.3867 7.6133 4.375 3.1367 0.011719 6.043-1.6602 7.6133-4.375l105.88-183.75c11.703-19.824 17.922-42.402 18.016-65.426 0.09375-23.02-5.9453-45.648-17.492-65.562zm-15.137 122.5-98.613 170.45-98.352-170.62c-10.129-17.242-15.473-36.875-15.473-56.875s5.3438-39.633 15.473-56.875c9.875-17.352 24.188-31.766 41.473-41.762 17.281-9.9961 36.914-15.211 56.879-15.113 19.957-0.10547 39.582 5.0977 56.863 15.074 17.285 9.9805 31.602 24.375 41.488 41.715 10.148 17.25 15.496 36.902 15.496 56.918s-5.3477 39.664-15.496 56.918zm-98.613-124.95c-16.027 0.023438-31.395 6.3984-42.727 17.734-11.336 11.332-17.711 26.699-17.734 42.727 0.042969 16.012 6.4336 31.355 17.766 42.672 11.328 11.316 26.684 17.68 42.695 17.703 16.012-0.023438 31.367-6.3867 42.695-17.703 11.332-11.316 17.723-26.66 17.766-42.672-0.023438-16.027-6.3984-31.395-17.734-42.727-11.332-11.336-26.699-17.711-42.727-17.734zm0 103.34c-11.379 0-22.293-4.5156-30.348-12.551-8.0547-8.0391-12.59-18.945-12.613-30.324 0-11.395 4.5234-22.32 12.582-30.379s18.984-12.582 30.379-12.582 22.32 4.5234 30.379 12.582 12.582 18.984 12.582 30.379c-0.023438 11.379-4.5586 22.285-12.613 30.324-8.0547 8.0352-18.969 12.551-30.348 12.551zm1470-919.19c-55.695 0-109.11 22.125-148.49 61.508-39.383 39.383-61.508 92.797-61.508 148.49s22.125 109.11 61.508 148.49c39.383 39.383 92.797 61.508 148.49 61.508s109.11-22.125 148.49-61.508c39.383-39.383 61.508-92.797 61.508-148.49s-22.125-109.11-61.508-148.49c-39.383-39.383-92.797-61.508-148.49-61.508zm0 402.5c-51.055 0-100.02-20.281-136.12-56.383-36.102-36.102-56.383-85.062-56.383-136.12s20.281-100.02 56.383-136.12c36.102-36.102 85.062-56.383 136.12-56.383s100.02 20.281 136.12 56.383c36.102 36.102 56.383 85.062 56.383 136.12s-20.281 100.02-56.383 136.12c-36.102 36.102-85.062 56.383-136.12 56.383zm23.273-239.57v155.31c-0.066407 6.125-2.5508 11.98-6.9062 16.289-4.3594 4.3086-10.238 6.7227-16.367 6.7227-6.1719 0-12.094-2.4531-16.457-6.8164-4.3672-4.3672-6.8164-10.285-6.8164-16.457v-155.05c0.089844-6.1133 2.582-11.945 6.9375-16.234 4.3555-4.2891 10.223-6.6914 16.336-6.6914s11.98 2.4023 16.336 6.6914c4.3555 4.2891 6.8477 10.121 6.9375 16.234zm0-61.25c0.023437 6.1953-2.4141 12.148-6.7773 16.543-4.3672 4.3984-10.301 6.8828-16.496 6.9062-6.1797-0.023438-12.102-2.4961-16.465-6.875-4.3594-4.3789-6.8086-10.305-6.8086-16.488 0.066407-6.125 2.5508-11.98 6.9062-16.289 4.3594-4.3086 10.238-6.7227 16.367-6.7227s12.008 2.4141 16.367 6.7227c4.3555 4.3086 6.8398 10.164 6.9062 16.289zm711.73-101.68c-55.695 0-109.11 22.125-148.49 61.508-39.383 39.383-61.508 92.797-61.508 148.49s22.125 109.11 61.508 148.49c39.383 39.383 92.797 61.508 148.49 61.508s109.11-22.125 148.49-61.508c39.383-39.383 61.508-92.797 61.508-148.49s-22.125-109.11-61.508-148.49c-39.383-39.383-92.797-61.508-148.49-61.508zm0 402.5c-51.055 0-100.02-20.281-136.12-56.383-36.102-36.102-56.383-85.062-56.383-136.12s20.281-100.02 56.383-136.12c36.102-36.102 85.062-56.383 136.12-56.383s100.02 20.281 136.12 56.383c36.102 36.102 56.383 85.062 56.383 136.12s-20.281 100.02-56.383 136.12c-36.102 36.102-85.062 56.383-136.12 56.383zm-1.2266-137.11h2.4531c5.3438-0.023438 10.461-2.1602 14.234-5.9492 3.7734-3.7891 5.8906-8.918 5.8906-14.262v-159.78c0-5.3359-2.1211-10.453-5.8945-14.23-3.7773-3.7734-8.8945-5.8945-14.23-5.8945h-2.4531c-5.3359 0-10.453 2.1211-14.23 5.8945-3.7734 3.7773-5.8945 8.8945-5.8945 14.23v159.6c-0.046876 5.375 2.0508 10.547 5.8281 14.375 3.7773 3.8242 8.9219 5.9883 14.297 6.0117zm-2.625-179.99c0-1.4492 1.1758-2.625 2.625-2.625h2.4531c1.4492 0 2.625 1.1758 2.625 2.625v159.6c0 1.4648-1.1641 2.6641-2.625 2.7109h-2.4531c-1.4609-0.046876-2.625-1.2461-2.625-2.7109zm-2.0117 243.86c1.6055 1.4609 3.6953 2.2695 5.8633 2.2773 2.168-0.007812 4.2578-0.81641 5.8633-2.2773l82.25-73.938c4.0664-3.6562 6.5195-8.7773 6.8125-14.242 0.29688-5.4648-1.5859-10.82-5.2383-14.895-3.6562-4.0703-8.7812-6.5195-14.242-6.8164-5.4648-0.29297-10.82 1.5898-14.895 5.2422l-60.551 54.426-60.551-54.426c-4.0742-3.6523-9.4297-5.5352-14.895-5.2422-5.4609 0.29688-10.586 2.7461-14.242 6.8164-3.6523 4.0742-5.5352 9.4297-5.2383 14.895 0.29297 5.4648 2.7461 10.586 6.8125 14.242zm-70.789-91.352 0.003906 0.003906c0.59766-0.67187 1.4609-1.0547 2.3594-1.0508 0.77344 0.011719 1.5156 0.28906 2.1016 0.78516l66.324 59.852c3.332 3.0039 8.3945 3.0039 11.727 0l66.324-59.676c1.25-1.1875 3.2109-1.1875 4.4609 0 0.59375 0.59375 0.92969 1.3945 0.92969 2.2305 0 0.83984-0.33594 1.6406-0.92969 2.2344l-76.648 68.773-76.387-68.773c-0.625-0.54297-1.0039-1.3086-1.0547-2.1328-0.046875-0.82422 0.23828-1.6328 0.79297-2.2422zm181.65 108.07c0 2.3203-0.92188 4.543-2.5625 6.1875-1.6406 1.6406-3.8672 2.5625-6.1875 2.5625h-192.5c-4.832 0-8.75-3.918-8.75-8.75 0-4.8359 3.918-8.75 8.75-8.75h192.5c2.3203 0 4.5469 0.92188 6.1875 2.5625 1.6406 1.6406 2.5625 3.8672 2.5625 6.1875zm-1435-354.73h-280c-4.832 0-8.75 3.918-8.75 8.75v367.5c0 2.3203 0.92188 4.5469 2.5625 6.1875s3.8672 2.5625 6.1875 2.5625h87.5l-9.625 9.625c-3.8594 3.8867-6.0234 9.1367-6.0234 14.613 0 5.4727 2.1641 10.727 6.0234 14.613l8.75 8.2266v-0.003906c3.8711 3.8789 9.1328 6.0547 14.613 6.0391 5.4766 0.003907 10.734-2.168 14.613-6.0391l37.711-38.324c2.4531-2.375 4.1562-5.418 4.8984-8.75h121.54c2.3203 0 4.5469-0.92188 6.1875-2.5625s2.5625-3.8672 2.5625-6.1875v-367.5c0-2.3203-0.92188-4.5469-2.5625-6.1875s-3.8672-2.5625-6.1875-2.5625zm-176.66 420c-0.58984 0.59375-1.3906 0.92578-2.2305 0.92578-0.83594 0-1.6406-0.33203-2.2305-0.92578l-8.2266-8.3125c-0.58984-0.58984-0.92578-1.3945-0.92578-2.2305 0-0.83984 0.33594-1.6406 0.92578-2.2305l38.324-37.801 12.25 12.773zm167.91-52.5h-109.55l23.801-23.801c7.957 4.6875 17.012 7.1953 26.25 7.2617 13.938 0.035156 27.316-5.4727 37.188-15.312 9.8867-9.8477 15.441-23.23 15.441-37.188 0-13.953-5.5547-27.336-15.441-37.188-9.8516-9.8828-23.23-15.441-37.188-15.441s-27.336 5.5586-37.188 15.441c-1.0352 1.1055-2 2.2773-2.8867 3.5h-133.35c-4.832 0-8.75 3.918-8.75 8.75 0 2.3203 0.92188 4.5469 2.5625 6.1875 1.6406 1.6406 3.8672 2.5625 6.1875 2.5625h123.81c-3.957 11.992-3.4609 25.008 1.4023 36.664h-125.21c-4.832 0-8.75 3.918-8.75 8.75 0 2.3203 0.92188 4.5469 2.5625 6.1875s3.8672 2.5625 6.1875 2.5625h116.81l-17.5 17.5c-3.3711-2-7.3164-2.8125-11.203-2.3047-3.8867 0.50781-7.4922 2.3047-10.234 5.1055l-11.199 10.762h-96.25v-350h262.5zm-34.477-44.273c-6.5664 6.5977-15.492 10.309-24.805 10.309s-18.238-3.7109-24.805-10.309c-6.6016-6.5703-10.309-15.496-10.309-24.809 0-9.3086 3.707-18.238 10.309-24.805 6.5664-6.5625 15.477-10.246 24.762-10.238 9.3164-0.03125 18.258 3.6523 24.848 10.238 6.5469 6.5586 10.223 15.449 10.223 24.719 0 9.2656-3.6758 18.156-10.223 24.719zm-207.2-266.44c0-4.8359 3.918-8.75 8.75-8.75h203.35c2.3203 0 4.5469 0.92188 6.1875 2.5625 1.6406 1.6406 2.5625 3.8672 2.5625 6.1875 0 2.3203-0.92188 4.543-2.5625 6.1875-1.6406 1.6406-3.8672 2.5625-6.1875 2.5625h-203.35c-2.3203 0-4.5469-0.92187-6.1875-2.5625-1.6406-1.6445-2.5625-3.8672-2.5625-6.1875zm0 54.164v-0.003906c0-4.832 3.918-8.75 8.75-8.75h203.35c2.3203 0 4.5469 0.92188 6.1875 2.5625s2.5625 3.8672 2.5625 6.1875c0 2.3203-0.92188 4.5469-2.5625 6.1875s-3.8672 2.5625-6.1875 2.5625h-203.35c-4.832 0-8.75-3.918-8.75-8.75zm0 54.164v-0.003907c0-4.832 3.918-8.75 8.75-8.75h203.35c2.3203 0 4.5469 0.92188 6.1875 2.5625s2.5625 3.8672 2.5625 6.1875c0 2.3203-0.92188 4.5469-2.5625 6.1875s-3.8672 2.5625-6.1875 2.5625h-203.35c-2.3203 0-4.5469-0.92188-6.1875-2.5625s-2.5625-3.8672-2.5625-6.1875zm0 54.164v-0.007812c0-4.832 3.918-8.75 8.75-8.75h203.35c2.3203 0 4.5469 0.92187 6.1875 2.5625 1.6406 1.6445 2.5625 3.8672 2.5625 6.1875 0 2.3203-0.92188 4.5469-2.5625 6.1875-1.6406 1.6406-3.8672 2.5625-6.1875 2.5625h-203.35c-4.832 0-8.75-3.9141-8.75-8.75zm286.39 722.57c-5.1602-100.98-81.898-179.64-175.96-179.64s-170.71 78.75-175.96 179.55c-5.6094 7.2461-8.6836 16.129-8.75 25.289v8.75c0.019532 9.5273 3.2891 18.762 9.2734 26.176 5.9805 7.4141 14.316 12.566 23.625 14.598v1.8398c0.023438 9.0664 3.6367 17.754 10.047 24.164s15.098 10.023 24.164 10.047h15.84c9.0742 0 17.773-3.6055 24.191-10.02 6.4141-6.418 10.02-15.121 10.02-24.191v-94.414c0-9.0742-3.6055-17.777-10.02-24.191-6.418-6.418-15.117-10.02-24.191-10.02h-15.84c-9.0664 0.023438-17.754 3.6328-24.164 10.043-6.4102 6.4141-10.023 15.102-10.047 24.168v2.2734c-1.8789 0.45312-3.7188 1.0352-5.5117 1.75 10.938-84.438 77.176-148.31 157.5-148.31s146.3 63.875 157.5 148.75c-1.7891-0.72656-3.6328-1.3086-5.5117-1.75v-2.7109c-0.023437-9.0664-3.6367-17.754-10.047-24.168-6.4102-6.4102-15.102-10.02-24.168-10.043h-15.836c-9.0742 0-17.777 3.6016-24.191 10.02-6.418 6.4141-10.023 15.117-10.023 24.191v94.852c0.003906 7.7852 2.668 15.34 7.5547 21.402 4.8867 6.0664 11.699 10.277 19.309 11.934 3.0625 15.23 0.31641 31.055-7.6992 44.363-7.9609 9.8164-19.672 15.848-32.289 16.625-1.7891-4.0078-4.6953-7.4102-8.375-9.8008-3.6797-2.3906-7.9727-3.668-12.359-3.6758-6.0586 0-11.867 2.4062-16.148 6.6914-4.2852 4.2812-6.6914 10.09-6.6914 16.148 0.023437 6.0391 2.4414 11.828 6.7188 16.09 4.2812 4.2656 10.078 6.6602 16.121 6.6602 4.6016-0.023437 9.0898-1.4258 12.879-4.0312 3.793-2.6094 6.7148-6.293 8.3828-10.582 18.023-0.94531 34.77-9.6211 45.938-23.801 10.242-15.945 14.258-35.098 11.285-53.812h5.4258c9.0664-0.023438 17.758-3.6367 24.168-10.047 6.4102-6.4102 10.023-15.098 10.047-24.164v-1.8398c9.3047-2.0312 17.641-7.1836 23.625-14.598 5.9805-7.4141 9.2539-16.648 9.2734-26.176v-8.75c-0.015625-9.3359-3.2266-18.383-9.1016-25.637zm-310.19-17.5v-0.003907c0-4.4336 1.7617-8.6836 4.8984-11.82 3.1328-3.1328 7.3828-4.8945 11.816-4.8945h15.836c4.4336 0 8.6836 1.7617 11.816 4.8945 3.1367 3.1367 4.8984 7.3867 4.8984 11.82v94.5c-0.023437 4.4219-1.793 8.6602-4.9219 11.789-3.1289 3.1289-7.3672 4.8984-11.793 4.9219h-15.836c-4.4258-0.023438-8.6641-1.793-11.793-4.9219-3.1289-3.1289-4.8984-7.3672-4.9219-11.789v-94.852zm-17.5 74.812v-0.003907c-4.5391-1.7773-8.4375-4.8828-11.184-8.9102s-4.2148-8.793-4.2148-13.668v-8.75c-0.011719-4.875 1.4492-9.6445 4.1992-13.672 2.75-4.0312 6.6523-7.1328 11.199-8.9023zm185.32 128.98 0.003906-0.007812c-2.9141 0-5.293-2.3359-5.3398-5.25 0-2.9453 2.3906-5.3359 5.3398-5.3359 2.9453 0 5.3359 2.3906 5.3359 5.3359-0.22656 2.7773-2.5508 4.9102-5.3359 4.9023zm100.62-108.94 0.003906-0.007812c-0.023437 4.4258-1.793 8.6641-4.9219 11.793-3.1289 3.1289-7.3672 4.8984-11.793 4.9219h-15.836c-4.4258-0.023437-8.6641-1.793-11.793-4.9219-3.1289-3.1289-4.8984-7.3672-4.9219-11.793v-95.199c0-4.4336 1.7617-8.6836 4.8984-11.816 3.1328-3.1367 7.3828-4.8945 11.816-4.8945h15.836c4.4336 0 8.6836 1.7578 11.816 4.8945 3.1367 3.1328 4.8984 7.3828 4.8984 11.816v94.852zm32.898-42.613 0.003906-0.007812c0 4.875-1.4688 9.6406-4.2148 13.668s-6.6445 7.1328-11.184 8.9102v-54.688c4.5469 1.7656 8.4492 4.8672 11.199 8.8984s4.2109 8.7969 4.1992 13.676zm685.57-153.13h-19.512c-14.438-53.984-52.938-92.836-98.176-92.836s-83.738 38.852-98.176 92.836h-19.512c-7.1875 0-14.078 2.8633-19.148 7.9531-5.0742 5.0898-7.9141 11.988-7.8906 19.172v299.16c-0.023438 7.1875 2.8164 14.086 7.8906 19.176 5.0703 5.0898 11.961 7.9492 19.148 7.9492h235.38c7.1875 0 14.078-2.8594 19.148-7.9492 5.0742-5.0898 7.9141-11.988 7.8906-19.176v-299.16c0.023438-7.1836-2.8164-14.082-7.8906-19.172-5.0703-5.0898-11.961-7.9531-19.148-7.9531zm-117.69-75.336c36.137 0 67.113 31.148 80.148 75.336h-160.3c13.035-44.188 44.012-75.336 80.148-75.336zm127.23 401.62c0.023438 2.543-0.97266 4.9922-2.7656 6.8008-1.7891 1.8086-4.2305 2.8242-6.7734 2.8242h-235.38c-2.543 0-4.9844-1.0156-6.7734-2.8242-1.793-1.8086-2.7891-4.2578-2.7656-6.8008v-299.16c-0.023438-2.543 0.97266-4.9922 2.7656-6.8008 1.7891-1.8047 4.2305-2.8242 6.7734-2.8242h15.75c-1.5508 9.6367-2.3398 19.379-2.3633 29.141 0 4.832 3.918 8.75 8.75 8.75s8.75-3.918 8.75-8.75c0.0625-9.7695 0.9375-19.516 2.625-29.141h168.35c1.6875 9.625 2.5625 19.371 2.625 29.141 0 4.832 3.918 8.75 8.75 8.75s8.75-3.918 8.75-8.75c-0.023437-9.7617-0.8125-19.504-2.3633-29.141h15.75c2.543 0 4.9844 1.0195 6.7734 2.8242 1.793 1.8086 2.7891 4.2578 2.7656 6.8008zm-203.61-9.9766c0 2.3203-0.92188 4.5469-2.5625 6.1875-1.6406 1.6406-3.8672 2.5625-6.1875 2.5625h-22.488c-4.832 0-8.75-3.9141-8.75-8.75v-23.359c0-4.8359 3.918-8.75 8.75-8.75s8.75 3.9141 8.75 8.75v14.613h13.738v-0.003906c4.832 0 8.75 3.918 8.75 8.75zm1015.8-219.8c-5.25-7.0391-13.531-11.164-22.312-11.113h-364.17c-8.8945-0.070312-17.285 4.1133-22.578 11.258-5.2969 7.1445-6.8555 16.391-4.1992 24.879l36.312 124.77c4.2656 14.422 13.062 27.082 25.09 36.113 12.023 9.0312 26.637 13.949 41.672 14.027h211.58c15.035-0.078124 29.648-4.9961 41.672-14.027 12.027-9.0312 20.824-21.691 25.09-36.113l36.312-124.77c2.6484-8.5742 0.98438-17.895-4.4648-25.023zm-11.898 19.688-36.75 124.77c-3.207 10.785-9.793 20.254-18.789 27.012-8.9922 6.7578-19.922 10.449-31.172 10.527h-211.58c-11.25-0.078124-22.18-3.7695-31.172-10.527-8.9961-6.7578-15.582-16.227-18.789-27.012l-36.312-124.77c-0.97266-3.1523-0.35156-6.5781 1.6641-9.1875 2.0547-2.7383 5.332-4.2773 8.75-4.1133h364.18-0.003906c3.2656-0.023437 6.3477 1.5039 8.3125 4.1133 2.0156 2.6094 2.6367 6.0352 1.6641 9.1875zm-257.6 18.898c-5.4844 0.023438-10.734 2.2188-14.605 6.1055-3.8711 3.8867-6.043 9.1484-6.043 14.633v70c0 7.375 3.9375 14.195 10.324 17.883 6.3906 3.6875 14.262 3.6875 20.652 0 6.3867-3.6875 10.324-10.508 10.324-17.883v-70c0-5.5625-2.2344-10.891-6.1992-14.789-3.9648-3.8984-9.3281-6.043-14.891-5.9492zm3.1484 90.477h0.003906c0 1.7383-1.4102 3.1484-3.1523 3.1484-1.7383 0-3.1484-1.4102-3.1484-3.1484v-70c0-1.7422 1.4102-3.1523 3.1484-3.1523 1.7422 0 3.1523 1.4102 3.1523 3.1523zm58.102-90.477c-5.4844 0.023438-10.734 2.2188-14.605 6.1055-3.8711 3.8867-6.043 9.1484-6.043 14.633v70c0.46094 7.0742 4.5 13.422 10.715 16.832 6.2148 3.4102 13.742 3.4102 19.957 0 6.2148-3.4102 10.254-9.7578 10.715-16.832v-70c0.003906-5.5781-2.2422-10.918-6.2266-14.82-3.9844-3.9023-9.3711-6.0352-14.949-5.918zm3.2383 90.477c-0.046875 1.7539-1.4805 3.1484-3.2383 3.1484-1.7383 0-3.1484-1.4102-3.1484-3.1484v-70c0-1.7578 1.3945-3.1914 3.1484-3.2383 1.7695 0.046875 3.1914 1.4688 3.2383 3.2383zm66.586-90.477h0.003906c-5.4844 0.023438-10.738 2.2188-14.609 6.1055-3.8711 3.8867-6.043 9.1484-6.043 14.633v70c0 7.375 3.9375 14.195 10.324 17.883 6.3906 3.6875 14.262 3.6875 20.652 0 6.3867-3.6875 10.324-10.508 10.324-17.883v-70c0-5.5625-2.2305-10.891-6.1953-14.789-3.9688-3.8984-9.332-6.043-14.891-5.9492zm3.1484 90.477h0.003906c0 1.7383-1.4102 3.1484-3.1484 3.1484-1.7422 0-3.1523-1.4102-3.1523-3.1484v-70c0-1.7422 1.4102-3.1523 3.1523-3.1523 1.7383 0 3.1484 1.4102 3.1484 3.1523zm-177.45-152.69c0-38.703 20.645-74.465 54.16-93.812 33.516-19.352 74.812-19.352 108.33 0 33.516 19.348 54.16 55.109 54.16 93.812 0 4.832-3.918 8.75-8.75 8.75s-8.75-3.918-8.75-8.75c0-32.449-17.309-62.434-45.41-78.66-28.102-16.223-62.727-16.223-90.828 0-28.102 16.227-45.41 46.211-45.41 78.66 0 4.832-3.918 8.75-8.75 8.75s-8.75-3.918-8.75-8.75zm-1901.6 809.9-188.48-211.75c-1.6523-1.832-4.0078-2.8828-6.4766-2.8867-2.4961-0.019531-4.8867 1.0312-6.5625 2.8867l-54.164 61.25 0.003906-13.125c0-2.3203-0.92188-4.5469-2.5625-6.1875s-3.8672-2.5625-6.1875-2.5625h-41.562c-4.832 0-8.75 3.918-8.75 8.75v78.75l-75.336 84.613h-0.003906c-2.2578 2.5781-2.8047 6.2344-1.3984 9.3633 1.4102 3.1328 4.5234 5.1523 7.9609 5.1602h38.414v156.19c0 2.3203 0.92188 4.5469 2.5625 6.1875s3.8672 2.5625 6.1875 2.5625h282.62c2.3203 0 4.5469-0.92188 6.1875-2.5625s2.5625-3.8672 2.5625-6.1875v-155.84h38.414c3.4375-0.007812 6.5508-2.0273 7.9609-5.1641 1.4453-3.1484 0.89844-6.8555-1.3984-9.4492zm-212.54 162.05v-54.602h35v54.602zm150.24 0h-97.738v-63.352c0-2.3203-0.92188-4.5469-2.5625-6.1875s-3.8672-2.5625-6.1875-2.5625h-52.5c-4.832 0-8.75 3.918-8.75 8.75v63.352h-97.387v-147.35h265.12zm-234.76-316.93h24.062v23.625l-18.289 20.648-5.7734 6.4766zm-66.762 151.99 64.488-72.363 21.438-24.148 82.859-93.102 168.88 189.79zm1032.9-53.199h-0.003906c-2.0586-1.0469-4.4492-1.2383-6.6484-0.52734l-127.23 41.648 46.641-125.04c0.82422-2.168 0.75-4.5781-0.19922-6.6953-0.95312-2.1172-2.707-3.7695-4.8789-4.5938-17.984-6.7773-37.039-10.273-56.262-10.324-42.594 0.046875-83.434 16.969-113.57 47.062-30.145 30.094-47.133 70.906-47.25 113.5 0.023438 42.648 16.977 83.539 47.129 113.7 30.156 30.156 71.051 47.105 113.7 47.129 42.641-0.042969 83.52-17.004 113.67-47.152 30.148-30.152 47.109-71.031 47.152-113.67-0.015626-16.977-2.7305-33.84-8.0469-49.961-0.73047-2.207-2.3008-4.0312-4.375-5.0742zm-148.75 198.36-0.003906-0.003906c-37.973-0.066407-74.371-15.195-101.21-42.066-26.836-26.867-41.918-63.281-41.941-101.26 0.046875-37.996 15.16-74.426 42.031-101.29 26.867-26.871 63.297-41.984 101.29-42.031 14.184 0.039062 28.277 2.1914 41.824 6.3867l-50.051 133.88h0.003906c-1.0156 3.0508-0.27734 6.4102 1.9219 8.75 2.2891 2.293 5.6562 3.1328 8.75 2.1875l135.89-44.363h0.003906c3.1328 11.762 4.7227 23.879 4.7227 36.051 0.09375 38.035-14.926 74.551-41.758 101.51-26.828 26.961-63.27 42.16-101.3 42.25zm199.24-236.25-0.003906-0.003906c-15.312-46.289-50.668-83.219-96.25-100.54-2.1562-0.89844-4.582-0.89844-6.7383 0-2.1055 0.96484-3.7422 2.7266-4.5469 4.8984l-53.199 142.27-0.003906 0.003906c-1.0117 3.0469-0.27344 6.4062 1.9258 8.75 1.6445 1.7227 3.918 2.7031 6.3008 2.7109 0.89844 0.125 1.8125 0.125 2.7109 0l144.46-47.25h0.003906c4.332-1.5352 6.7422-6.1602 5.5117-10.586zm-138.25 35.961 43.75-116.81h-0.003906c34.277 15.453 61.199 43.629 75.074 78.574zm693.61-55.125c-116.9 0-208.51 42-208.51 95.637s91.613 95.637 208.51 95.637 208.51-42 208.51-95.637-91.613-95.637-208.51-95.637zm-191.01 95.637c0-39.637 76.477-73.5 171.06-77.699-23.219 5.875-42.594 21.828-52.816 43.488-10.227 21.664-10.227 46.758 0 68.422 10.223 21.66 29.598 37.613 52.816 43.488-94.59-4.1992-171.06-38.062-171.06-77.699zm210.96 77.699c23.219-5.875 42.594-21.828 52.816-43.488 10.227-21.664 10.227-46.758 0-68.422-10.223-21.66-29.598-37.613-52.816-43.488 94.586 4.1992 171.06 38.062 171.06 77.699s-76.473 73.5-171.06 77.699zm560 54.164h71.398v-210h-71.66zm17.5-192.5h36.398v175h-36.398zm62.211 192.5h71.488v-263.73h-71.488zm17.5-246.23h36.488v228.73h-36.488zm62.211 246.23h71.488v-148.75h-71.488zm17.5-131.25h36.488v113.75h-36.488zm62.301-78.75v210h71.398v-210zm53.898 192.5h-36.398v-175h36.398zm-2198.6 667.19h0.003907c-9.7344 0.011719-19.277 2.6914-27.594 7.7539-8.3164 5.0586-15.086 12.305-19.566 20.945l-192.5-54.949c2.7031-6.4258 4.1016-13.328 4.1133-20.301-0.011718-6.9727-1.4102-13.875-4.1133-20.301l192.5-54.949c4.4805 8.6406 11.25 15.887 19.566 20.945 8.3164 5.0625 17.859 7.7422 27.594 7.7539 14.059-0.023438 27.531-5.6172 37.469-15.555 9.9414-9.9414 15.535-23.414 15.559-37.469 0-14.07-5.5859-27.566-15.527-37.527-9.9414-9.957-23.426-15.562-37.5-15.586-14.086 0-27.594 5.5977-37.555 15.555-9.9609 9.9609-15.555 23.473-15.555 37.559v0.52344l-199.76 57.051h-0.003906c-0.67969 0.23047-1.3281 0.55469-1.9219 0.96094-9.4609-7.793-21.344-12.035-33.602-11.984-14.055 0.023438-27.531 5.6172-37.469 15.555s-15.531 23.414-15.555 37.469c0.023438 14.055 5.6172 27.531 15.555 37.469s23.414 15.531 37.469 15.555c12.258 0.050781 24.141-4.1914 33.602-11.984 0.61328 0.37109 1.2578 0.69141 1.9219 0.96094l199.76 57.051v0.52344h0.003906c0 14.086 5.5938 27.598 15.555 37.559 9.9609 9.957 23.469 15.555 37.555 15.555 14.074-0.023438 27.559-5.6289 37.5-15.586 9.9414-9.9609 15.527-23.457 15.527-37.527-0.023437-14.102-5.6523-27.613-15.648-37.562-9.9961-9.9453-23.539-15.508-37.641-15.461zm0-181.74h0.003907c9.4297 0.023438 18.469 3.7852 25.125 10.461 6.6602 6.6758 10.402 15.723 10.402 25.152 0 9.4219-3.7422 18.457-10.406 25.121-6.6602 6.6602-15.699 10.402-25.121 10.402-9.4297 0-18.473-3.7383-25.148-10.398-6.6758-6.6602-10.438-15.695-10.461-25.125 0-9.4023 3.7148-18.418 10.336-25.09 6.6211-6.6719 15.613-10.453 25.012-10.523zm-288.75 170.71h0.003907c-9.4219 0-18.457-3.7422-25.117-10.402-6.6641-6.6641-10.406-15.699-10.406-25.121s3.7422-18.457 10.406-25.121c6.6602-6.6602 15.695-10.402 25.117-10.402 9.4297 0 18.477 3.7383 25.152 10.398s10.438 15.695 10.461 25.125c-0.023438 9.4141-3.7734 18.438-10.43 25.094s-15.68 10.406-25.094 10.43zm288.75 99.664h0.003907c-9.4453 0-18.5-3.7539-25.18-10.43-6.6797-6.6797-10.43-15.738-10.43-25.184 0.023438-9.4297 3.7852-18.465 10.461-25.125 6.6758-6.6602 15.719-10.398 25.148-10.398 9.4219 0 18.461 3.7422 25.121 10.402 6.6641 6.6641 10.406 15.699 10.406 25.121 0 9.4766-3.7773 18.562-10.492 25.246-6.7188 6.6836-15.82 10.414-25.297 10.367zm797.91-255.41h-23.621v-8.75c-0.023438-7.8516-3.1602-15.371-8.7188-20.918-5.5586-5.543-13.094-8.6562-20.945-8.6562h-140.88c-7.8516 0-15.383 3.1133-20.941 8.6562-5.5625 5.5469-8.6953 13.066-8.7188 20.918v8.75h-190.66c-4.832 0-8.75 3.918-8.75 8.75v261.36c0 2.3203 0.92188 4.5469 2.5625 6.1875s3.8672 2.5625 6.1875 2.5625h414.23c2.3203 0 4.5469-0.92188 6.1875-2.5625s2.5625-3.8672 2.5625-6.1875v-261.36c0-2.3203-0.92188-4.543-2.5625-6.1875-1.6406-1.6406-3.8672-2.5625-6.1875-2.5625zm-206.41-8.75h0.003907c0.050781-6.6797 5.4805-12.074 12.164-12.074h140.88c3.2188-0.046875 6.3203 1.1953 8.6211 3.4453 2.3008 2.25 3.6055 5.3242 3.6289 8.543v7h-165.55zm197.66 270.2-396.98 0.003906v-243.95h396.73zm-198.62-21.262c26.703-0.023438 52.309-10.641 71.188-29.523 18.883-18.879 29.5-44.484 29.523-71.188-0.023438-26.703-10.641-52.309-29.523-71.188-18.879-18.883-44.484-29.5-71.188-29.523-26.703 0.023438-52.309 10.641-71.188 29.523-18.883 18.879-29.5 44.484-29.523 71.188 0.023438 26.703 10.641 52.309 29.523 71.188 18.879 18.883 44.484 29.5 71.188 29.523zm0-183.75c22.07 0 43.234 8.7695 58.84 24.375 15.605 15.605 24.371 36.77 24.371 58.84-0.066407 22.031-8.8633 43.137-24.457 58.699-15.598 15.562-36.723 24.316-58.754 24.336-22.062-0.023438-43.215-8.7969-58.816-24.395-15.598-15.602-24.371-36.754-24.395-58.816 0-22.07 8.7656-43.234 24.371-58.84 15.605-15.605 36.77-24.371 58.84-24.371zm0 140c15.102-0.023438 29.574-6.0312 40.254-16.707 10.676-10.68 16.684-25.152 16.707-40.254-0.023438-15.109-6.0273-29.594-16.703-40.285-10.676-10.691-25.148-16.719-40.258-16.766-15.109 0.046875-29.582 6.0742-40.258 16.766-10.676 10.691-16.68 25.176-16.703 40.285 0.023438 15.102 6.0312 29.574 16.707 40.254 10.68 10.676 25.152 16.684 40.254 16.707zm0-96.25c10.473 0.023437 20.512 4.2031 27.91 11.617 7.3984 7.4141 11.551 17.461 11.551 27.934-0.066407 10.422-4.2578 20.391-11.648 27.734-7.3945 7.3438-17.391 11.465-27.812 11.465-10.465 0-20.504-4.1562-27.902-11.559-7.4023-7.3984-11.559-17.438-11.559-27.902 0-10.473 4.1523-20.52 11.551-27.934 7.3984-7.418 17.438-11.594 27.91-11.617zm112.44-31.762h68.426c2.3203 0 4.5469-0.92188 6.1875-2.5625s2.5625-3.8672 2.5625-6.1875v-24.148c0-2.3203-0.92188-4.5469-2.5625-6.1875s-3.8672-2.5625-6.1875-2.5625h-68.426c-4.832 0-8.75 3.918-8.75 8.75v24.148c0.14062 4.7305 4.0195 8.4922 8.75 8.4883zm8.75-24.148h50.926v6.6484h-50.926zm496.65-7.6133h-53.461c-4.832 0-8.75 3.918-8.75 8.75v150.15c0 2.3203 0.92188 4.5469 2.5625 6.1875 1.6406 1.6406 3.8672 2.5625 6.1875 2.5625h53.461c2.3203 0 4.5469-0.92188 6.1875-2.5625 1.6406-1.6406 2.5625-3.8672 2.5625-6.1875v-150.41c0-2.3203-0.92188-4.5469-2.5625-6.1875-1.6406-1.6406-3.8672-2.5625-6.1875-2.5625zm-8.75 150.15h-35.961v-132.91h35.961zm301.61-236.86v0.003906c-2.3125-1.6523-5.2812-2.0742-7.9609-1.1406l-250.86 88.113c-3.4648 1.2539-5.7734 4.543-5.7734 8.2266v150.15c0 3.6836 2.3086 6.9727 5.7734 8.2266l250.86 88.375c2.6797 0.93359 5.6484 0.51172 7.9609-1.1367 2.2969-1.6367 3.6641-4.2734 3.6758-7.0898v-326.9c-0.011719-2.8164-1.3789-5.4531-3.6758-7.0898zm-13.824 321.3-233.27-82.164v-137.72l233.27-82.25zm398.12-226.89h-48.125c-4.832 0-8.75 3.918-8.75 8.75v134.23c0 2.3203 0.92188 4.5469 2.5625 6.1875s3.8672 2.5625 6.1875 2.5625h48.125c2.3203 0 4.5469-0.92188 6.1875-2.5625s2.5625-3.8672 2.5625-6.1875v-134.23c0-2.3203-0.92188-4.5469-2.5625-6.1875s-3.8672-2.5625-6.1875-2.5625zm-8.75 134.23h-30.625v-116.73h30.625zm271.25-211.75c-2.3125-1.6484-5.2812-2.0742-7.9609-1.1367l-224.44 78.75c-3.6875 1.2812-6.082 4.8516-5.8633 8.75v134.23-0.003906c-0.21875 3.8984 2.1758 7.4688 5.8633 8.75l224.44 78.75c0.95313 0.34766 1.957 0.52344 2.9727 0.52734 1.793-0.03125 3.5352-0.61328 4.9883-1.6641 2.3281-1.6133 3.7305-4.2539 3.7617-7.0859v-292.78c-0.03125-2.832-1.4336-5.4727-3.7617-7.0859zm-13.738 287.26-207.2-72.625v-122.5l207.02-72.887zm155.75-88.289c3.3945 3.4141 3.3945 8.9258 0 12.34-1.6406 1.6562-3.8789 2.5859-6.2109 2.5859s-4.5703-0.92969-6.2148-2.5859l-45.5-45.586-45.586 45.586c-1.6523 1.6367-3.8867 2.5508-6.2109 2.5352-3.5195-0.011719-6.6836-2.1328-8.0391-5.375-1.3555-3.2461-0.63672-6.9883 1.8242-9.5l45.586-45.586-45.41-45.586c-3.3945-3.4141-3.3945-8.9258 0-12.34 1.6445-1.6562 3.8789-2.5859 6.2109-2.5859 2.3359 0 4.5703 0.92969 6.2148 2.5859l45.586 45.586 45.5-45.586c1.6445-1.6562 3.8789-2.5859 6.2148-2.5859 2.332 0 4.5664 0.92969 6.2109 2.5859 3.3945 3.4141 3.3945 8.9258 0 12.34l-45.938 45.586zm-2434.3 857.5c6.2461-0.046876 11.285-5.125 11.285-11.375 0-6.2461-5.0391-11.324-11.285-11.375-6.25 0.050781-11.289 5.1289-11.289 11.375 0.14062 6.082 5.0352 10.977 11.113 11.113zm0-17.5c3.3945 0 6.1641 2.7305 6.2109 6.125 0 1.6406-0.65625 3.2109-1.8242 4.3633-1.168 1.1523-2.7461 1.7852-4.3867 1.7617-1.6406 0.023437-3.2227-0.60938-4.3867-1.7617-1.168-1.1523-1.8281-2.7227-1.8281-4.3633-0.046876-1.6445 0.5625-3.2461 1.6953-4.4414 1.1328-1.1992 2.6953-1.8984 4.3438-1.9453zm113.75-340.29-227.68 0.003906c-4.832 0-8.75 3.918-8.75 8.75v362.43c0 2.3203 0.92188 4.543 2.5625 6.1875 1.6406 1.6406 3.8672 2.5625 6.1875 2.5625h227.5c2.3203 0 4.5469-0.92187 6.1875-2.5625 1.6406-1.6445 2.5625-3.8672 2.5625-6.1875v-362.69c0-2.3203-0.92188-4.5469-2.5625-6.1875-1.6406-1.6406-3.8672-2.5625-6.1875-2.5625zm-8.75 17.5v295.4l-210.18 0.003907v-295.66zm0 344.93-210.18 0.003906v-32.023l210-0.003906zm-185.76-246.14c-3.7266-3.0312-4.3125-8.4961-1.3125-12.25l46.637-57.926v0.003906c1.457-1.8164 3.5781-2.9766 5.8945-3.2227 2.3164-0.24609 4.6328 0.44141 6.4414 1.9102 3.7266 3.0312 4.3125 8.4961 1.3125 12.25l-46.727 57.926 0.003906-0.003906c-1.6523 2.0898-4.1641 3.3125-6.8281 3.3281-2.168-0.007812-4.2578-0.81641-5.8594-2.2773zm57.836-34.477v0.003906c1.8164 1.457 2.9766 3.5781 3.2227 5.8945 0.24609 2.3164-0.44141 4.6328-1.9102 6.4414l-16.977 21.086v0.003906c-1.668 2.0547-4.1758 3.2461-6.8242 3.2344-2.0039 0.011718-3.9492-0.66797-5.5117-1.9219-3.7266-3.0312-4.3125-8.5-1.3125-12.25l16.977-21.176c2.9219-3.5938 8.1406-4.2852 11.898-1.5742zm928.81-81.812h-341.25v0.003906c-4.832 0-8.75 3.918-8.75 8.75v362.43c0 2.3203 0.92188 4.543 2.5625 6.1875 1.6406 1.6406 3.8672 2.5625 6.1875 2.5625h341.25c2.3203 0 4.5469-0.92187 6.1875-2.5625 1.6406-1.6445 2.5625-3.8672 2.5625-6.1875v-362.69c0.003906-2.3984-0.98047-4.6953-2.7148-6.3477-1.7383-1.6562-4.0781-2.5234-6.4727-2.4023zm-8.75 17.5v295.4h-323.75v-295.66zm0 344.93h-323.75v-32.023h323.75zm-298.55-251.47c-1.4883-1.7852-2.2031-4.0898-1.9883-6.4062 0.21094-2.3125 1.3359-4.4492 3.125-5.9297l70-57.926c3.707-3.0391 9.168-2.5352 12.25 1.1367 1.4883 1.7852 2.207 4.0898 1.9922 6.4062-0.21484 2.3125-1.3398 4.4492-3.1289 5.9297l-70 57.926c-1.5742 1.3047-3.5547 2.0156-5.5977 2.0117-2.5742-0.019532-5.0039-1.1719-6.6523-3.1484zm84-32.023c1.4805 1.7969 2.1797 4.1055 1.9492 6.4219-0.23047 2.3164-1.3711 4.4414-3.1719 5.9141l-25.289 20.914c-1.5742 1.3047-3.5547 2.0156-5.6016 2.0117-2.6016 0.003907-5.0703-1.1523-6.7344-3.1523-1.4805-1.7969-2.1797-4.1055-1.9531-6.4219 0.23047-2.3164 1.375-4.4414 3.1758-5.9141l25.551-21.086c3.6328-2.7578 8.7734-2.2617 11.812 1.1367zm52.5 279.48v-0.003906c6.668 0 12.074-5.4062 12.074-12.074 0.050781-3.2773-1.2383-6.4375-3.5625-8.7461-2.3281-2.3125-5.4961-3.5742-8.7734-3.5039-6.668 0-12.074 5.4062-12.074 12.074s5.4062 12.074 12.074 12.074zm0-17.5v-0.003906c2.9961 0 5.4258 2.4297 5.4258 5.4258s-2.4297 5.4258-5.4258 5.4258c-2.9961 0-5.4258-2.4297-5.4258-5.4258-0.097657-2.9648 2.2031-5.457 5.1641-5.6016zm907.81-267.14h-251.82c-4.832 0-8.75 3.918-8.75 8.75v45.414c0 2.3203 0.92188 4.543 2.5625 6.1875 1.6406 1.6406 3.8672 2.5625 6.1875 2.5625h252c2.3203 0 4.5469-0.92187 6.1875-2.5625 1.6406-1.6445 2.5625-3.8672 2.5625-6.1875v-45.414c0-2.3516-0.94531-4.6055-2.625-6.25s-3.9492-2.5469-6.3008-2.5zm-8.75 45.414h-234.32v-27.914h234.5zm8.75 39.113-251.82-0.003906c-4.832 0-8.75 3.918-8.75 8.75v45.328c0 2.3203 0.92188 4.543 2.5625 6.1875 1.6406 1.6406 3.8672 2.5625 6.1875 2.5625h252c2.3203 0 4.5469-0.92187 6.1875-2.5625 1.6406-1.6445 2.5625-3.8672 2.5625-6.1875v-45.328c0-2.3516-0.94531-4.6016-2.625-6.25-1.6797-1.6445-3.9492-2.5469-6.3008-2.5zm-8.75 45.324h-234.32v-27.824h234.5zm8.75 39.113-251.82-0.003906c-4.832 0-8.75 3.918-8.75 8.75v45.414c0 2.3203 0.92188 4.5469 2.5625 6.1875s3.8672 2.5625 6.1875 2.5625h252c2.3203 0 4.5469-0.92188 6.1875-2.5625s2.5625-3.8672 2.5625-6.1875v-45.414c0-2.3516-0.94531-4.6016-2.625-6.25-1.6797-1.6445-3.9492-2.5469-6.3008-2.5zm-8.75 45.414-234.32-0.003906v-27.914h234.5zm-284.2-215.34h-53.199c-4.832 0-8.75 3.9141-8.75 8.75v47.336c0 2.3203 0.92188 4.5469 2.5625 6.1875s3.8672 2.5625 6.1875 2.5625h53.199c2.3203 0 4.5469-0.92188 6.1875-2.5625s2.5625-3.8672 2.5625-6.1875v-47.336c0-2.3203-0.92188-4.5469-2.5625-6.1875-1.6406-1.6406-3.8672-2.5625-6.1875-2.5625zm-8.75 47.336h-35.699v-29.836h35.699zm8.75 37.102h-53.199c-4.832 0-8.75 3.9141-8.75 8.75v47.426-0.003906c0 2.3203 0.92188 4.5469 2.5625 6.1875 1.6406 1.6406 3.8672 2.5625 6.1875 2.5625h53.199c2.3203 0 4.5469-0.92188 6.1875-2.5625 1.6406-1.6406 2.5625-3.8672 2.5625-6.1875v-47.426 0.003906c0-2.3203-0.92188-4.5469-2.5625-6.1875-1.6406-1.6406-3.8672-2.5625-6.1875-2.5625zm-8.75 47.426-35.699-0.003906v-29.926l35.699 0.003906zm8.75 37.102-53.199-0.003906c-4.832 0-8.75 3.918-8.75 8.75v47.336c0 2.3203 0.92188 4.5469 2.5625 6.1875 1.6406 1.6406 3.8672 2.5625 6.1875 2.5625h53.199c2.3203 0 4.5469-0.92188 6.1875-2.5625 1.6406-1.6406 2.5625-3.8672 2.5625-6.1875v-46.898c0-2.3203-0.92188-4.5469-2.5625-6.1875s-3.8672-2.5625-6.1875-2.5625zm-8.75 47.336-35.699-0.003906v-29.398h35.699zm1092.4 33.336c0.046876-0.37891 0.046876-0.76172 0-1.1367v-262.85c0.027344-0.20312 0.027344-0.41016 0-0.61328 0.070313-0.55078 0.070313-1.1094 0-1.6602-0.082031-0.58203-0.26172-1.1445-0.52734-1.6641v-0.52344c0-0.52344-0.52344-0.52344-0.69922-0.78906-0.36328-0.47656-0.77344-0.91797-1.2266-1.3125l-1.3125-0.875-1.5742-0.78906h-446.34l-1.4883 0.69922-1.3984 0.96094-1.2266 1.3125-0.69922 0.78906v0.52734c-0.26562 0.51953-0.44531 1.082-0.52734 1.6641-0.070313 0.55078-0.070313 1.1094 0 1.6602-0.027344 0.20312-0.027344 0.41016 0 0.61328v262.5c-0.046876 0.37891-0.046876 0.76172 0 1.1367-0.039063 0.61328-0.039063 1.2266 0 1.8398 0.25781 0.54297 0.55078 1.0664 0.875 1.5742 0.14062 0.36719 0.31641 0.71875 0.52734 1.0508 0.60938 0.69531 1.3555 1.2578 2.1875 1.6602 0 0 0.4375 0.4375 0.69922 0.52344v0.003906c1.0898 0.52734 2.2891 0.79688 3.5 0.78516h440.48c1.2109 0.011719 2.4062-0.25781 3.5-0.78516l0.69922-0.4375c0.81641-0.46484 1.5547-1.0547 2.1875-1.75 0.20703-0.33203 0.38672-0.68359 0.52344-1.0508 0.32422-0.50781 0.61719-1.0312 0.875-1.5742 0.35547-0.47656 0.67578-0.97266 0.96484-1.4883zm-440.21-248.94 160.56 96.25-160.56 132.91zm211.49 105.96-188.48-112.26h376.95zm-35.613 0v-0.61328l30.711 18.375h0.003906c2.707 1.5664 6.043 1.5664 8.75 0l30.711-18.375v0.61328l161.44 132.74h-392zm86.539-10.062 160.56-96.25v229.16zm-2213.8 688.89h-84.176c-16.391 0-32.113 6.5078-43.711 18.09-11.602 11.582-18.129 27.297-18.152 43.688v153.39c0.023437 16.391 6.5508 32.105 18.152 43.688 11.598 11.582 27.32 18.086 43.711 18.086h84.176c16.383 0 32.094-6.5078 43.68-18.094 11.586-11.582 18.094-27.297 18.094-43.68v-153.39c0-16.398-6.5195-32.125-18.125-43.715-11.602-11.586-27.336-18.086-43.738-18.062zm44.273 214.99c-0.023438 11.734-4.6953 22.984-12.992 31.281-8.2969 8.3008-19.547 12.973-31.281 12.996h-84.176c-11.75 0-23.02-4.6641-31.34-12.965-8.3164-8.3008-13-19.562-13.023-31.312v-153.21c0.023437-11.75 4.707-23.012 13.023-31.312 8.3203-8.3008 19.59-12.965 31.34-12.965h84.176c11.734 0.023437 22.984 4.6953 31.281 12.996 8.2969 8.2969 12.969 19.547 12.992 31.281zm-95.551 28.875c0 2.3203-0.92188 4.5469-2.5625 6.1875-1.6406 1.6406-3.8672 2.5625-6.1875 2.5625-16.375-0.023438-32.074-6.5391-43.656-18.117-11.578-11.582-18.094-27.281-18.117-43.656 0-4.832 3.918-8.75 8.75-8.75 2.3203 0 4.5469 0.92188 6.1875 2.5625s2.5625 3.8672 2.5625 6.1875c0.023438 11.734 4.6953 22.984 12.992 31.281 8.3008 8.2969 19.547 12.969 31.281 12.992 2.3828-0.09375 4.6992 0.78516 6.418 2.4375 1.7148 1.6484 2.6836 3.9297 2.6836 6.3125zm-50.574-250.86h119.53c2.3203 0 4.543-0.92188 6.1875-2.5625 1.6406-1.6406 2.5625-3.8672 2.5625-6.1875v-119.09c0-2.3203-0.92187-4.5469-2.5625-6.1875-1.6445-1.6406-3.8672-2.5625-6.1875-2.5625h-119.53c-4.832 0-8.75 3.918-8.75 8.75v119.44c0.1875 4.6602 4 8.3555 8.6641 8.3984zm8.75-119.44h102.02v101.94h-102.02zm45.324 34.211v33.516c0 2.3203-0.92188 4.5469-2.5625 6.1875-1.6406 1.6406-3.8672 2.5625-6.1875 2.5625h-8.75c-4.832 0-8.75-3.918-8.75-8.75v-33.512c0-4.832 3.918-8.75 8.75-8.75h8.75c4.8008 0.046875 8.6641 3.9492 8.6641 8.75zm37.449 0v33.512l0.003906 0.003906c0 2.3203-0.92187 4.5469-2.5625 6.1875-1.6445 1.6406-3.8672 2.5625-6.1875 2.5625h-8.75c-4.8359 0-8.75-3.918-8.75-8.75v-33.512c0-4.832 3.9141-8.75 8.75-8.75h8.75c4.7969 0.046875 8.6602 3.9492 8.6602 8.75zm873.86 180.86v0.003906c-0.13672 45.191-18.18 88.488-50.18 120.4-31.996 31.914-75.34 49.848-120.53 49.871-45.184-0.023438-88.52-17.957-120.5-49.875-31.984-31.918-50.008-75.215-50.125-120.4 0.023438-39.176 13.512-77.148 38.203-107.56 24.691-30.41 59.09-51.41 97.422-59.477v22.312c-32.453 7.8555-61.316 26.402-81.949 52.652-20.633 26.254-31.836 58.684-31.801 92.074 0 39.449 15.672 77.285 43.566 105.18 27.898 27.898 65.734 43.57 105.18 43.57 39.41-0.14062 77.164-15.855 105.03-43.723 27.867-27.867 43.586-65.621 43.723-105.03 0.035156-33.391-11.168-65.82-31.801-92.074-20.633-26.25-49.496-44.797-81.949-52.652v-22.051c38.305 8.0273 72.684 28.98 97.379 59.344 24.691 30.367 38.195 68.297 38.246 107.43zm-159.43-105.44h-22.398v-109.29h22.398zm761.25-110.34h0.003906c-9.418-10.633-22.941-16.723-37.145-16.723s-27.727 6.0898-37.145 16.723c-15.078 16.688-22.668 38.82-21 61.25l22.398 195.65c0.69922 34.125 12.25 70.875 35.789 70.875s35-36.75 35.699-70l22.574-197.14c1.3164-22.305-6.4844-44.188-21.609-60.637zm-18.898 256.38c-0.69922 35-12.426 53.727-18.199 53.727s-17.5-18.988-18.289-54.602l-22.922-195.82c-1.0938-17.355 4.7227-34.438 16.188-47.512 6.1172-7.2031 15.09-11.359 24.543-11.359 9.4492 0 18.426 4.1562 24.543 11.359 11.434 12.855 17.285 29.727 16.273 46.898zm-18.637 79.801c-8.9844-0.023438-17.613 3.5273-23.98 9.8672-6.3672 6.3398-9.9531 14.949-9.9688 23.938-0.015625 8.9844 3.5391 17.609 9.8867 23.973 6.3438 6.3594 14.961 9.9414 23.945 9.9492 8.9883 0.007813 17.605-3.5586 23.965-9.9102 6.3555-6.3516 9.9258-14.969 9.9258-23.953 0-8.9648-3.5547-17.566-9.8867-23.914-6.332-6.3477-14.922-9.9258-23.887-9.9492zm0 49.875c-4.3516 0.023438-8.5312-1.6875-11.617-4.75-3.0859-3.0664-4.8242-7.2344-4.832-11.582-0.007812-4.3516 1.7148-8.5234 4.793-11.602 3.0742-3.0742 7.25-4.8008 11.598-4.793 4.3516 0.007812 8.5195 1.75 11.582 4.8359 3.0664 3.0859 4.7734 7.2656 4.75 11.617-0.019532 4.3086-1.7422 8.4336-4.7891 11.48s-7.1758 4.7695-11.484 4.793zm617.84-276.5h-53.461c-4.832 0-8.75 3.918-8.75 8.75v150.06c0 2.3203 0.92188 4.5469 2.5625 6.1875s3.8672 2.5625 6.1875 2.5625h53.461c2.3203 0 4.5469-0.92188 6.1875-2.5625 1.6406-1.6406 2.5625-3.8672 2.5625-6.1875v-149.8c0-2.3203-0.92188-4.5469-2.5625-6.1875-1.6406-1.6406-3.8672-2.5625-6.1875-2.5625zm-8.75 150.06h-35.961v-132.3h35.961zm301.61-236.95c-2.3281-1.6211-5.293-2.0117-7.9609-1.0508l-250.77 88.375h-0.003906c-3.4961 1.2227-5.8477 4.5195-5.8594 8.2266v150.15c0.011719 3.707 2.3633 7 5.8594 8.2266l18.551 6.5625c-0.52734 3.1484-0.78906 6.3398-0.78516 9.5352-0.011718 17.664 7.8164 34.422 21.367 45.75 13.551 11.332 31.43 16.066 48.812 12.926s32.477-13.832 41.207-29.188l121.62 42.789c0.92578 0.33594 1.9023 0.51172 2.8867 0.52344 2.3203 0 4.5469-0.92188 6.1875-2.5625s2.5625-3.8672 2.5625-6.1875v-326.64c0.015625-2.8477-1.3555-5.5234-3.6758-7.1758zm-146.48 293.56h0.003906c-7.7734 11.723-20.938 18.734-35 18.637-11.172-0.023438-21.875-4.4766-29.766-12.383-7.8906-7.9062-12.324-18.621-12.324-29.793v-3.5859l23.012 8.1367zm132.65 28.176-180.07-63.352-33.164-11.727-19.949-7.0859v-137.55l233.27-82.25zm-2388.8 513.62-87.5-87.5h0.003906c-3.4141-3.3945-8.9258-3.3945-12.336 0l-35.613 35.613v-0.003906c-1.6172 1.6328-2.5273 3.832-2.5391 6.125-0.011719 2.3281 0.90234 4.5625 2.5391 6.2148l87.5 87.5c1.6367 1.668 3.875 2.6133 6.2109 2.625 2.3398-0.011719 4.5781-0.95703 6.2148-2.625l35.523-35.523v-0.003906c2.9922-3.4688 2.8008-8.6562-0.4375-11.898zm-41.738 29.398-75.426-75.426 23.188-23.188 75.426 75.426zm268.36 152.07-135.27-135.19h0.003906c-3.4141-3.3906-8.9258-3.3906-12.34 0l-25.113 25.113-32.727-32.727 25.113-25.113 0.003906 0.003906c1.6367-1.6523 2.5508-3.8867 2.5352-6.2148-0.007813-2.293-0.92188-4.4961-2.5352-6.125l-135.19-135.27c-1.6445-1.6562-3.8828-2.5898-6.2148-2.5898s-4.5703 0.93359-6.2109 2.5898l-80.676 80.676c-1.6562 1.6406-2.5898 3.8789-2.5898 6.2109s0.93359 4.5703 2.5898 6.2109l135.27 135.19c1.6328 1.6172 3.832 2.5312 6.125 2.5391 2.3281 0.011719 4.5625-0.89844 6.2148-2.5391l25.113-25.113 32.727 32.727-25.113 25.113h-0.003906c-1.6367 1.6523-2.5508 3.8867-2.5352 6.2109 0.007813 2.2969 0.92188 4.4961 2.5352 6.125l135.19 135.27v0.003906c1.6523 1.6367 3.8867 2.5508 6.2148 2.5352 2.3242 0.015624 4.5586-0.89844 6.2109-2.5352l80.676-80.676c3.1602-3.5078 2.9648-8.8906-0.4375-12.164zm-267.23-105.79-122.5-122.5 68.336-68.336 122.5 122.5zm43.75-18.988 5.6875-5.6875 32.727 32.727-5.6875 5.6875zm136.59 199.32-122.5-122.5 68.336-68.336 122.5 122.5zm-95.113-127.93 0.007812 0.003907c-1.6562 1.6445-2.5898 3.8789-2.5898 6.2148 0 2.332 0.93359 4.5664 2.5898 6.2109l87.5 87.5c1.6523 1.6367 3.8867 2.5508 6.2109 2.5391 2.2969-0.011718 4.4961-0.92187 6.125-2.5391l35.613-35.613c1.6172-1.6289 2.5273-3.8281 2.5391-6.125 0.011719-2.3242-0.90234-4.5586-2.5391-6.2109l-87.5-87.5c-1.6406-1.6562-3.8789-2.5898-6.2109-2.5898s-4.5703 0.93359-6.2148 2.5898zm117.16 58.449-23.188 23.188-75.426-75.426 23.188-23.188z"/>
  <use x="70" y="691.25" xlink:href="#o"/>
  <use x="102.109375" y="691.25" xlink:href="#d"/>
  <use x="123.683594" y="691.25" xlink:href="#c"/>
  <use x="153.355469" y="691.25" xlink:href="#j"/>
  <use x="182.878906" y="691.25" xlink:href="#b"/>
  <use x="203.792969" y="691.25" xlink:href="#c"/>
  <use x="233.464844" y="691.25" xlink:href="#a"/>
  <use x="280.011719" y="691.25" xlink:href="#i"/>
  <use x="311.328125" y="691.25" xlink:href="#h"/>
  <use x="355.078125" y="691.25" xlink:href="#g"/>
  <use x="391.394531" y="691.25" xlink:href="#f"/>
  <use x="406.390625" y="691.25" xlink:href="#n"/>
  <use x="432.324219" y="691.25" xlink:href="#d"/>
  <use x="453.902344" y="691.25" xlink:href="#e"/>
  <use x="483.957031" y="691.25" xlink:href="#m"/>
  <use x="530.335938" y="691.25" xlink:href="#l"/>
  <use x="561.84375" y="691.25" xlink:href="#b"/>
  <use x="582.757812" y="691.25" xlink:href="#k"/>
  <use x="613.90625" y="691.25" xlink:href="#a"/>
  <use x="645.222656" y="691.25" xlink:href="#f"/>
  <use x="660.21875" y="691.25" xlink:href="#e"/>
 </g>
</svg>
