<?xml version="1.0" encoding="UTF-8"?>
<svg width="700pt" height="700pt" version="1.1" fill="#fff" viewBox="0 0 700 700" xmlns="http://www.w3.org/2000/svg" xmlns:xlink="http://www.w3.org/1999/xlink">
 <g>
  <path d="m514.27 451.11h-328.53l-92.711-358.4 185.42 151.2 71.555-147.46 71.555 147.46 185.42-151.2zm-314.22-18.664h299.91l74.668-289.33-159.91 130.04-64.711-133.78-64.711 133.78-159.91-130.05z"/>
  <use x="70" y="653.332031" xlink:href="#s"/>
  <use x="92.832031" y="653.332031" xlink:href="#d"/>
  <use x="108.175781" y="653.332031" xlink:href="#a"/>
  <use x="129.273437" y="653.332031" xlink:href="#i"/>
  <use x="150.269531" y="653.332031" xlink:href="#c"/>
  <use x="165.140625" y="653.332031" xlink:href="#a"/>
  <use x="186.242188" y="653.332031" xlink:href="#h"/>
  <use x="219.34375" y="653.332031" xlink:href="#g"/>
  <use x="241.613281" y="653.332031" xlink:href="#e"/>
  <use x="272.722656" y="653.332031" xlink:href="#f"/>
  <use x="295.25" y="653.332031" xlink:href="#b"/>
  <use x="316.625" y="653.332031" xlink:href="#c"/>
  <use x="331.496094" y="653.332031" xlink:href="#a"/>
  <use x="352.597656" y="653.332031" xlink:href="#e"/>
  <use x="372.878906" y="653.332031" xlink:href="#b"/>
  <use x="70" y="684.445312" xlink:href="#r"/>
  <use x="83.535156" y="684.445312" xlink:href="#d"/>
  <use x="98.878906" y="684.445312" xlink:href="#b"/>
  <use x="120.25" y="684.445312" xlink:href="#q"/>
  <use x="163.5" y="684.445312" xlink:href="#c"/>
  <use x="178.371094" y="684.445312" xlink:href="#p"/>
  <use x="200.519531" y="684.445312" xlink:href="#a"/>
  <use x="232.453125" y="684.445312" xlink:href="#o"/>
  <use x="258.488281" y="684.445312" xlink:href="#b"/>
  <use x="279.863281" y="684.445312" xlink:href="#n"/>
  <use x="302.011719" y="684.445312" xlink:href="#m"/>
  <use x="334.992188" y="684.445312" xlink:href="#l"/>
  <use x="357.792969" y="684.445312" xlink:href="#d"/>
  <use x="373.136719" y="684.445312" xlink:href="#b"/>
  <use x="394.507812" y="684.445312" xlink:href="#k"/>
  <use x="405.171875" y="684.445312" xlink:href="#a"/>
  <use x="426.273437" y="684.445312" xlink:href="#j"/>
  <use x="444.714844" y="684.445312" xlink:href="#c"/>
 </g>
</svg>
