<?xml version="1.0" encoding="UTF-8"?>
<svg xmlns="http://www.w3.org/2000/svg" xmlns:xlink="http://www.w3.org/1999/xlink" width="500px" height="300px" viewBox="0 0 500 180" version="1.1">
<g id="surface1">
<path style=" stroke:none;fill-rule:nonzero;fill:rgb(0%,0%,0%);fill-opacity:1;" d="M 156.089844 157.277344 L 119.539062 157.277344 C 115.976562 157.277344 113.089844 159.8125 113.089844 162.957031 L 113.089844 218.121094 C 113.089844 221.269531 115.972656 223.835938 119.539062 223.835938 L 156.089844 223.835938 C 159.65625 223.835938 162.539062 221.269531 162.539062 218.121094 L 162.539062 162.960938 C 162.539062 159.816406 159.65625 157.28125 156.089844 157.28125 Z M 159.148438 218.121094 C 159.148438 219.585938 157.792969 220.777344 156.09375 220.777344 L 119.539062 220.78125 C 117.839844 220.78125 116.484375 219.589844 116.484375 218.121094 L 116.484375 162.957031 C 116.484375 161.519531 117.839844 160.332031 119.539062 160.332031 L 156.089844 160.332031 C 157.789062 160.332031 159.144531 161.519531 159.144531 162.957031 Z M 159.148438 218.121094 "/>
<path style=" stroke:none;fill-rule:nonzero;fill:rgb(0%,0%,0%);fill-opacity:1;" d="M 385.011719 64.449219 L 172.277344 64.449219 C 168.273438 64.449219 165.015625 67.382812 165.015625 70.988281 L 165.015625 120.804688 L 149.875 120.804688 C 143.734375 120.804688 138.746094 124.964844 138.746094 130.0625 L 138.746094 149.183594 L 115.292969 149.183594 C 111.121094 149.183594 107.726562 152.480469 107.726562 156.546875 L 107.726562 233.640625 C 107.726562 237.703125 111.121094 241 115.292969 241 L 337.15625 241 C 340.652344 241 343.503906 238.832031 343.503906 236.144531 C 343.503906 233.457031 340.652344 231.257812 337.15625 231.257812 L 305.457031 231.257812 L 305.457031 209.660156 L 385.011719 209.660156 C 389.019531 209.660156 392.277344 206.730469 392.277344 203.125 L 392.277344 70.988281 C 392.277344 67.382812 389.015625 64.449219 385.011719 64.449219 Z M 164.613281 233.640625 C 164.613281 236.023438 162.710938 237.945312 160.402344 237.945312 L 115.296875 237.945312 C 112.988281 237.945312 111.125 236.023438 111.125 233.640625 L 111.125 156.546875 C 111.125 154.164062 112.988281 152.238281 115.296875 152.238281 L 160.402344 152.238281 C 162.710938 152.238281 164.613281 154.164062 164.613281 156.546875 Z M 160.402344 149.183594 L 148.898438 149.183594 L 148.898438 141.421875 C 148.898438 139.132812 151.75 137.269531 155.210938 137.269531 L 216.808594 137.269531 C 220.238281 137.269531 223.117188 139.164062 223.117188 141.421875 L 223.117188 216.445312 C 223.117188 218.675781 220.234375 220.597656 216.808594 220.597656 L 168.003906 220.597656 L 168.003906 156.546875 C 168.003906 152.484375 164.578125 149.183594 160.402344 149.183594 Z M 229.875 232.078125 C 229.875 235.410156 226.550781 237.945312 222.136719 237.945312 L 166.578125 237.945312 C 167.460938 236.722656 168 235.226562 168 233.640625 L 168 223.648438 L 216.804688 223.648438 C 222.167969 223.648438 226.515625 220.410156 226.515625 216.441406 L 226.515625 141.417969 C 226.515625 137.449219 222.167969 134.210938 216.804688 134.210938 L 155.207031 134.207031 C 149.84375 134.207031 145.5 137.449219 145.5 141.417969 L 145.5 149.175781 L 142.140625 149.175781 L 142.140625 130.054688 C 142.140625 126.632812 145.601562 123.851562 149.878906 123.851562 L 222.132812 123.851562 C 226.410156 123.851562 229.875 126.636719 229.875 130.054688 Z M 222.136719 120.800781 L 177.371094 120.800781 L 177.371094 75.78125 L 379.886719 75.78125 L 379.886719 198.359375 L 233.265625 198.359375 L 233.265625 130.0625 C 233.265625 124.960938 228.277344 120.804688 222.136719 120.804688 Z M 233.265625 209.65625 L 251.96875 209.65625 L 251.96875 231.25 L 233.265625 231.25 Z M 388.878906 203.117188 C 388.878906 205.042969 387.148438 206.601562 385.011719 206.601562 L 302.0625 206.605469 L 302.0625 234.308594 L 337.152344 234.308594 C 338.746094 234.308594 340.105469 235.164062 340.105469 236.140625 C 340.105469 237.121094 338.710938 237.945312 337.152344 237.945312 L 230.582031 237.945312 C 231.699219 236.90625 232.519531 235.683594 232.890625 234.308594 L 255.359375 234.308594 L 255.359375 206.605469 L 233.261719 206.605469 L 233.261719 201.410156 L 383.273438 201.410156 L 383.273438 72.722656 L 173.972656 72.722656 L 173.972656 120.800781 L 168.40625 120.800781 L 168.40625 70.980469 C 168.40625 69.085938 170.136719 67.5 172.273438 67.5 L 385.007812 67.5 C 387.148438 67.5 388.878906 69.085938 388.878906 70.980469 Z M 388.878906 203.117188 "/>
<path style=" stroke:none;fill-rule:nonzero;fill:rgb(0%,0%,0%);fill-opacity:1;" d="M 186.023438 224.90625 C 182.492188 224.90625 179.644531 227.503906 179.644531 230.648438 C 179.644531 233.824219 182.492188 236.390625 186.023438 236.390625 C 189.523438 236.390625 192.371094 233.824219 192.371094 230.648438 C 192.367188 227.503906 189.519531 224.90625 186.023438 224.90625 Z M 186.023438 233.339844 C 184.363281 233.339844 183.039062 232.148438 183.039062 230.648438 C 183.039062 229.183594 184.359375 227.960938 186.023438 227.960938 C 187.652344 227.960938 188.976562 229.179688 188.976562 230.648438 C 188.976562 232.148438 187.652344 233.339844 186.023438 233.339844 Z M 186.023438 233.339844 "/>
<path style=" stroke:none;fill-rule:nonzero;fill:rgb(0%,0%,0%);fill-opacity:1;" d="M 194.308594 128.78125 C 194.308594 129.636719 193.527344 130.3125 192.609375 130.3125 L 179.445312 130.3125 C 178.496094 130.3125 177.746094 129.640625 177.746094 128.78125 C 177.746094 127.925781 178.492188 127.253906 179.445312 127.253906 L 192.609375 127.253906 C 193.527344 127.253906 194.308594 127.925781 194.308594 128.78125 Z M 194.308594 128.78125 "/>
<path style=" stroke:none;fill-rule:nonzero;fill:rgb(0%,0%,0%);fill-opacity:1;" d="M 137.792969 225.703125 C 134.640625 225.703125 132.058594 228.027344 132.058594 230.898438 C 132.058594 233.734375 134.640625 236.089844 137.792969 236.089844 C 140.984375 236.089844 143.5625 233.734375 143.5625 230.898438 C 143.5625 228.023438 140.984375 225.703125 137.792969 225.703125 Z M 137.792969 233.03125 C 136.503906 233.03125 135.453125 232.054688 135.453125 230.894531 C 135.453125 229.703125 136.503906 228.753906 137.792969 228.753906 C 139.117188 228.753906 140.171875 229.699219 140.171875 230.894531 C 140.171875 232.058594 139.117188 233.03125 137.792969 233.03125 Z M 137.792969 233.03125 "/>
</g>
</svg>
