<?xml version="1.0" encoding="UTF-8"?>
<svg xmlns="http://www.w3.org/2000/svg" xmlns:xlink="http://www.w3.org/1999/xlink" width="650px" height="433px" viewBox="0 0 650 433" version="1.1">
<g id="surface1">
<path style=" stroke:none;fill-rule:nonzero;fill:rgb(0%,0%,0%);fill-opacity:1;" d="M 202.917969 227.003906 L 155.398438 227.003906 C 150.769531 227.003906 147.015625 230.660156 147.015625 235.199219 L 147.015625 314.824219 C 147.015625 319.367188 150.765625 323.070312 155.398438 323.070312 L 202.917969 323.070312 C 207.550781 323.070312 211.300781 319.367188 211.300781 314.824219 L 211.300781 235.207031 C 211.300781 230.667969 207.554688 227.007812 202.917969 227.007812 Z M 206.890625 314.824219 C 206.890625 316.9375 205.128906 318.65625 202.921875 318.65625 L 155.398438 318.660156 C 153.191406 318.660156 151.429688 316.941406 151.429688 314.824219 L 151.429688 235.199219 C 151.429688 233.128906 153.191406 231.410156 155.398438 231.410156 L 202.917969 231.410156 C 205.125 231.410156 206.886719 233.128906 206.886719 235.199219 Z M 206.890625 314.824219 "/>
<path style=" stroke:none;fill-rule:nonzero;fill:rgb(0%,0%,0%);fill-opacity:1;" d="M 500.515625 93.023438 L 223.960938 93.023438 C 218.753906 93.023438 214.519531 97.253906 214.519531 102.457031 L 214.519531 174.363281 L 194.839844 174.363281 C 186.855469 174.363281 180.371094 180.363281 180.371094 187.722656 L 180.371094 215.320312 L 149.882812 215.320312 C 144.457031 215.320312 140.042969 220.082031 140.042969 225.949219 L 140.042969 337.21875 C 140.042969 343.085938 144.457031 347.84375 149.882812 347.84375 L 438.300781 347.84375 C 442.847656 347.84375 446.554688 344.714844 446.554688 340.835938 C 446.554688 336.957031 442.847656 333.78125 438.300781 333.78125 L 397.09375 333.78125 L 397.09375 302.609375 L 500.515625 302.609375 C 505.726562 302.609375 509.960938 298.378906 509.960938 293.175781 L 509.960938 102.460938 C 509.960938 97.257812 505.722656 93.023438 500.515625 93.023438 Z M 213.996094 337.21875 C 213.996094 340.660156 211.523438 343.433594 208.523438 343.433594 L 149.886719 343.433594 C 146.882812 343.433594 144.460938 340.660156 144.460938 337.21875 L 144.460938 225.949219 C 144.460938 222.507812 146.882812 219.730469 149.886719 219.730469 L 208.523438 219.730469 C 211.523438 219.730469 213.996094 222.507812 213.996094 225.949219 Z M 208.523438 215.320312 L 193.566406 215.320312 L 193.566406 204.121094 C 193.566406 200.816406 197.273438 198.125 201.773438 198.125 L 281.851562 198.125 C 286.308594 198.125 290.054688 200.859375 290.054688 204.121094 L 290.054688 312.402344 C 290.054688 315.621094 286.304688 318.398438 281.851562 318.398438 L 218.40625 318.398438 L 218.40625 225.949219 C 218.40625 220.085938 213.949219 215.324219 208.523438 215.324219 Z M 298.839844 334.96875 C 298.839844 339.777344 294.515625 343.433594 288.777344 343.433594 L 216.550781 343.433594 C 217.699219 341.667969 218.402344 339.507812 218.402344 337.21875 L 218.402344 322.800781 L 281.847656 322.800781 C 288.820312 322.800781 294.46875 318.125 294.46875 312.398438 L 294.46875 204.113281 C 294.46875 198.382812 288.820312 193.710938 281.847656 193.710938 L 201.769531 193.707031 C 194.796875 193.707031 189.148438 198.382812 189.148438 204.113281 L 189.148438 215.308594 L 184.78125 215.308594 L 184.78125 187.710938 C 184.78125 182.773438 189.28125 178.761719 194.84375 178.761719 L 288.773438 178.761719 C 294.332031 178.761719 298.835938 182.777344 298.835938 187.710938 Z M 288.777344 174.355469 L 230.582031 174.355469 L 230.582031 109.375 L 493.851562 109.375 L 493.851562 286.296875 L 303.246094 286.296875 L 303.246094 187.722656 C 303.246094 180.359375 296.761719 174.363281 288.777344 174.363281 Z M 303.246094 302.605469 L 327.558594 302.605469 L 327.558594 333.773438 L 303.246094 333.773438 Z M 505.542969 293.167969 C 505.542969 295.945312 503.292969 298.195312 500.515625 298.195312 L 392.679688 298.199219 L 392.679688 338.183594 L 438.296875 338.183594 C 440.371094 338.183594 442.136719 339.417969 442.136719 340.832031 C 442.136719 342.242188 440.324219 343.433594 438.296875 343.433594 L 299.757812 343.433594 C 301.210938 341.933594 302.273438 340.167969 302.757812 338.183594 L 331.964844 338.183594 L 331.964844 298.199219 L 303.242188 298.199219 L 303.242188 290.703125 L 498.257812 290.703125 L 498.257812 104.960938 L 226.164062 104.960938 L 226.164062 174.355469 L 218.929688 174.355469 L 218.929688 102.449219 C 218.929688 99.714844 221.179688 97.425781 223.957031 97.425781 L 500.511719 97.425781 C 503.292969 97.425781 505.542969 99.714844 505.542969 102.449219 Z M 505.542969 293.167969 "/>
<path style=" stroke:none;fill-rule:nonzero;fill:rgb(0%,0%,0%);fill-opacity:1;" d="M 241.832031 324.617188 C 237.242188 324.617188 233.539062 328.363281 233.539062 332.902344 C 233.539062 337.488281 237.242188 341.191406 241.832031 341.191406 C 246.378906 341.191406 250.082031 337.488281 250.082031 332.902344 C 250.078125 328.363281 246.375 324.617188 241.832031 324.617188 Z M 241.832031 336.785156 C 239.671875 336.785156 237.949219 335.066406 237.949219 332.902344 C 237.949219 330.789062 239.667969 329.023438 241.832031 329.023438 C 243.949219 329.023438 245.667969 330.785156 245.667969 332.902344 C 245.667969 335.066406 243.949219 336.785156 241.832031 336.785156 Z M 241.832031 336.785156 "/>
<path style=" stroke:none;fill-rule:nonzero;fill:rgb(0%,0%,0%);fill-opacity:1;" d="M 252.601562 185.875 C 252.601562 187.109375 251.585938 188.082031 250.394531 188.082031 L 233.277344 188.082031 C 232.042969 188.082031 231.070312 187.113281 231.070312 185.875 C 231.070312 184.640625 232.039062 183.671875 233.277344 183.671875 L 250.394531 183.671875 C 251.585938 183.671875 252.601562 184.640625 252.601562 185.875 Z M 252.601562 185.875 "/>
<path style=" stroke:none;fill-rule:nonzero;fill:rgb(0%,0%,0%);fill-opacity:1;" d="M 179.132812 325.765625 C 175.03125 325.765625 171.675781 329.117188 171.675781 333.261719 C 171.675781 337.359375 175.03125 340.753906 179.132812 340.753906 C 183.28125 340.753906 186.632812 337.359375 186.632812 333.261719 C 186.632812 329.113281 183.28125 325.765625 179.132812 325.765625 Z M 179.132812 336.34375 C 177.453125 336.34375 176.089844 334.933594 176.089844 333.257812 C 176.089844 331.539062 177.453125 330.167969 179.132812 330.167969 C 180.851562 330.167969 182.222656 331.535156 182.222656 333.257812 C 182.222656 334.9375 180.851562 336.34375 179.132812 336.34375 Z M 179.132812 336.34375 "/>
</g>
</svg>
