<?xml version="1.0" encoding="UTF-8"?>
<svg width="700pt" height="700pt" version="1.1" viewBox="0 0 700 400" xmlns="http://www.w3.org/2000/svg" xmlns:xlink="http://www.w3.org/1999/xlink">
 <g>
  <path d="m195.05 288.34h-60.312c-5.8789 0-10.641 4.6484-10.641 10.414v101.14c0 5.7695 4.7617 10.473 10.641 10.473h60.312c5.8789 0 10.641-4.7031 10.641-10.473v-101.13c0-5.7695-4.7578-10.418-10.641-10.418zm5.043 111.55c0 2.6875-2.2383 4.8711-5.0391 4.8711l-60.316 0.003906c-2.8008 0-5.0391-2.1836-5.0391-4.8711v-101.14c0-2.6328 2.2383-4.8164 5.0391-4.8164h60.312c2.8008 0 5.0391 2.1836 5.0391 4.8164z"/>
  <path d="m572.77 118.16h-351.01c-6.6094 0-11.984 5.375-11.984 11.984v91.336h-24.977c-10.137 0-18.367 7.6172-18.367 16.969v35.055h-38.695c-6.8867 0-12.488 6.0469-12.488 13.496v141.34c0 7.4492 5.6016 13.496 12.488 13.496h366.07c5.7695 0 10.473-3.9766 10.473-8.9023 0-4.9297-4.7031-8.9609-10.473-8.9609h-52.305v-39.594h131.27c6.6094 0 11.984-5.375 11.984-11.984v-242.25c0-6.6094-5.3789-11.984-11.984-11.984zm-363.66 310.18c0 4.3672-3.1367 7.8945-6.9453 7.8945h-74.426c-3.8086 0-6.8867-3.5273-6.8867-7.8945v-141.34c0-4.3672 3.0781-7.8945 6.8867-7.8945h74.426c3.8086 0 6.9453 3.5273 6.9453 7.8945zm-6.9453-154.84h-18.984v-14.223c0-4.1992 4.7031-7.6172 10.414-7.6172h101.64c5.6562 0 10.414 3.4727 10.414 7.6172v137.54c0 4.0898-4.7617 7.6172-10.414 7.6172h-80.527v-117.43c0-7.4492-5.6562-13.496-12.543-13.496zm114.63 151.98c0 6.1055-5.4883 10.754-12.77 10.754l-91.672-0.003907c1.457-2.2383 2.3516-4.9844 2.3516-7.8945v-18.312h80.527c8.8477 0 16.016-5.9375 16.016-13.215v-137.54c0-7.2812-7.168-13.215-16.016-13.215l-101.64-0.003906c-8.8477 0-16.016 5.9375-16.016 13.215v14.223h-5.543v-35.055c0-6.2734 5.7109-11.367 12.77-11.367h119.22c7.0547 0 12.77 5.0977 12.77 11.367zm-12.77-204.01h-73.863v-82.543h334.15v224.73h-241.92v-125.21c0-9.3516-8.2305-16.969-18.367-16.969zm18.367 162.9h30.855v39.594h-30.855zm256.76-11.984c0 3.5273-2.8555 6.3828-6.3828 6.3828l-136.87 0.003906v50.793h57.902c2.6328 0 4.8711 1.5664 4.8711 3.3594s-2.2969 3.3047-4.8711 3.3047h-175.84c1.8477-1.9023 3.1914-4.1445 3.8086-6.6641h37.07v-50.793h-36.457v-9.5195h247.52l0.003906-235.93h-345.35v88.145h-9.1836v-91.336c0-3.4727 2.8555-6.3828 6.3828-6.3828h351.01c3.5273 0 6.3828 2.9102 6.3828 6.3828z"/>
  <path d="m244.44 412.33c-5.8242 0-10.527 4.7617-10.527 10.527 0 5.8242 4.7031 10.527 10.527 10.527 5.7695 0 10.473-4.7031 10.473-10.527-0.003906-5.7656-4.707-10.527-10.473-10.527zm0 15.457c-2.7422 0-4.9297-2.1836-4.9297-4.9297 0-2.6875 2.1836-4.9297 4.9297-4.9297 2.6875 0 4.8711 2.2383 4.8711 4.9297 0 2.7461-2.1836 4.9297-4.8711 4.9297z"/>
  <path d="m258.11 236.1c0 1.5664-1.2891 2.8008-2.8008 2.8008h-21.727c-1.5664 0-2.8008-1.2305-2.8008-2.8008 0-1.5664 1.2305-2.8008 2.8008-2.8008h21.727c1.5117 0 2.8008 1.2305 2.8008 2.8008z"/>
  <path d="m164.86 413.79c-5.207 0-9.4648 4.2578-9.4648 9.5195 0 5.207 4.2578 9.5195 9.4648 9.5195 5.2656 0 9.5195-4.3125 9.5195-9.5195 0-5.2656-4.2539-9.5195-9.5195-9.5195zm0 13.438c-2.1289 0-3.8633-1.793-3.8633-3.9219 0-2.1836 1.7344-3.9219 3.8633-3.9219 2.1836 0 3.9219 1.7344 3.9219 3.9219 0 2.1328-1.7383 3.9219-3.9219 3.9219z"/>
 
 
 
 </g>
</svg>
