<?xml version="1.0" encoding="UTF-8"?>
<svg width="700pt" height="700pt" version="1.1" fill="#fff" viewBox="0 0 700 400" xmlns="http://www.w3.org/2000/svg" xmlns:xlink="http://www.w3.org/1999/xlink">
 <g>
  <path d="m353.36 203.84-119.84 119.84c-4.4805 4.4805-4.4805 11.199 0 15.68 2.2383 2.2383 5.0391 3.3594 7.8398 3.3594s5.6016-1.1211 7.8398-3.3594l104.16-104.16 98.559 98.559c4.4805 4.4805 11.199 4.4805 15.68 0 4.4805-4.4805 4.4805-11.199 0-15.68z" fill="#010101"/>
  <path d="m350.56 12.32c-145.04 0-263.2 118.16-263.2 263.2 0 145.04 118.16 263.2 263.2 263.2 145.04 0 263.2-118.16 263.2-263.2 0.003907-145.04-118.16-263.2-263.2-263.2zm0 504c-132.72 0-240.8-108.08-240.8-240.8 0-132.72 108.08-240.8 240.8-240.8 132.72 0 240.8 108.08 240.8 240.8 0 132.72-108.08 240.8-240.8 240.8z" fill="#010101"/>
  <g>
   <use x="70" y="644" xlink:href="#u"/>
   <use x="90.550781" y="644" xlink:href="#c"/>
   <use x="104.359375" y="644" xlink:href="#b"/>
   <use x="123.347656" y="644" xlink:href="#e"/>
   <use x="142.242188" y="644" xlink:href="#a"/>
   <use x="155.628906" y="644" xlink:href="#b"/>
   <use x="174.617188" y="644" xlink:href="#l"/>
   <use x="204.410156" y="644" xlink:href="#k"/>
   <use x="224.453125" y="644" xlink:href="#j"/>
   <use x="252.453125" y="644" xlink:href="#i"/>
   <use x="274.011719" y="644" xlink:href="#d"/>
   <use x="293.25" y="644" xlink:href="#h"/>
   <use x="313.179688" y="644" xlink:href="#t"/>
   <use x="322.78125" y="644" xlink:href="#a"/>
   <use x="345.914062" y="644" xlink:href="#s"/>
   <use x="367.609375" y="644" xlink:href="#g"/>
   <use x="387.542969" y="644" xlink:href="#f"/>
   <use x="416.71875" y="644" xlink:href="#e"/>
   <use x="435.613281" y="644" xlink:href="#c"/>
   <use x="70" y="672" xlink:href="#r"/>
   <use x="82.183594" y="672" xlink:href="#c"/>
   <use x="95.992188" y="672" xlink:href="#d"/>
   <use x="115.226562" y="672" xlink:href="#f"/>
   <use x="154.152344" y="672" xlink:href="#a"/>
   <use x="167.535156" y="672" xlink:href="#h"/>
   <use x="187.46875" y="672" xlink:href="#b"/>
   <use x="216.207031" y="672" xlink:href="#q"/>
   <use x="239.640625" y="672" xlink:href="#d"/>
   <use x="258.878906" y="672" xlink:href="#g"/>
   <use x="278.8125" y="672" xlink:href="#p"/>
   <use x="308.492188" y="672" xlink:href="#o"/>
   <use x="329.015625" y="672" xlink:href="#c"/>
   <use x="342.820312" y="672" xlink:href="#d"/>
   <use x="362.058594" y="672" xlink:href="#n"/>
   <use x="371.65625" y="672" xlink:href="#b"/>
   <use x="390.648438" y="672" xlink:href="#m"/>
   <use x="407.242188" y="672" xlink:href="#a"/>
  </g>
 </g>
</svg>
